<svg xmlns="http://www.w3.org/2000/svg" xmlns:xlink="http://www.w3.org/1999/xlink" width="800" zoomAndPan="magnify" viewBox="0 0 600 599.999999" height="800" preserveAspectRatio="xMidYMid meet" version="1.0"><path fill="#ffffff" d="M 186.546875 149.058594 C 185.199219 150.117188 175.851562 166.597656 143.082031 226.160156 C 131.613281 246.78125 120.722656 266.539062 118.699219 270.007812 C 114.84375 276.660156 83.714844 333.132812 81.308594 337.855469 C 80.34375 339.785156 79.859375 343.542969 79.859375 349.132812 C 79.859375 356.265625 80.246094 358.289062 82.464844 362.816406 C 85.546875 369.179688 90.078125 373.417969 97.496094 376.890625 L 102.796875 379.394531 L 170.644531 379.683594 L 238.398438 379.972656 L 243.503906 377.5625 C 253.238281 373.128906 258.058594 367.347656 268.273438 348.074219 C 272.515625 340.167969 300.175781 289.863281 304.703125 282.054688 C 308.558594 275.308594 343.253906 211.894531 343.253906 211.507812 C 343.253906 211.316406 326.386719 211.21875 305.667969 211.21875 L 268.179688 211.21875 L 264.613281 217.195312 C 262.683594 220.570312 258.539062 227.796875 255.550781 233.386719 C 246.589844 249.867188 227.605469 283.789062 217.773438 300.847656 L 208.714844 316.75 L 193.777344 316.75 C 181.054688 316.75 178.453125 316.460938 176.234375 315.015625 C 170.933594 311.546875 171.128906 311.257812 205.628906 249.769531 C 209.101562 243.699219 216.90625 229.53125 222.976562 218.449219 C 232.421875 201.292969 248.421875 172.574219 259.695312 152.625 L 262.589844 147.515625 L 225.195312 147.804688 C 201.679688 147.902344 187.414062 148.382812 186.546875 149.058594 Z M 186.546875 149.058594 " fill-opacity="1" fill-rule="nonzero"/><path fill="#ffffff" d="M 366.578125 172.382812 C 359.15625 186.066406 351.636719 200.136719 349.710938 203.703125 L 346.339844 210.257812 L 363.105469 210.257812 C 372.839844 210.257812 379.972656 210.640625 380.359375 211.21875 C 380.648438 211.703125 380.261719 213.148438 379.585938 214.304688 C 377.660156 217.386719 374.480469 223.363281 344.507812 280.128906 C 335.929688 296.320312 312.605469 339.976562 297.859375 367.347656 L 291.402344 379.394531 L 328.703125 379.683594 C 363.589844 379.875 366 379.78125 368.3125 378.140625 C 369.660156 377.179688 375.730469 367.25 381.898438 356.167969 C 387.972656 345.085938 398.378906 326.484375 404.933594 314.824219 C 411.488281 303.160156 418.910156 289.957031 421.316406 285.429688 C 436.160156 258.25 459 217.003906 462.46875 211.414062 L 463.820312 209.292969 L 501.597656 209.96875 L 539.472656 210.546875 L 557.011719 179.707031 C 566.652344 162.742188 574.554688 148.578125 574.554688 148.191406 C 574.554688 147.902344 530.800781 147.613281 477.3125 147.613281 L 380.070312 147.613281 Z M 366.578125 172.382812 " fill-opacity="1" fill-rule="nonzero"/><path fill="#ffffff" d="M 196.765625 433.363281 L 196.765625 463.722656 L 208.136719 463.722656 L 208.523438 448.882812 C 208.8125 435.582031 209.003906 433.652344 210.835938 431.246094 C 214.785156 425.945312 223.074219 425.945312 227.027344 431.246094 C 228.855469 433.652344 229.050781 435.484375 229.339844 448.882812 L 229.628906 463.722656 L 241.289062 463.722656 L 240.902344 447.050781 C 240.613281 431.535156 240.421875 430.183594 238.207031 426.136719 C 233 416.691406 218.253906 414.570312 210.0625 421.992188 C 208.425781 423.4375 208.328125 423.050781 208.328125 413.320312 L 208.328125 403.007812 L 196.765625 403.007812 Z M 196.765625 433.363281 " fill-opacity="1" fill-rule="nonzero"/><path fill="#ffffff" d="M 159.757812 405.992188 C 148.578125 408.691406 142.988281 418.714844 147.035156 428.546875 C 148.769531 432.691406 153.972656 436.0625 162.9375 438.761719 C 166.984375 439.917969 171.320312 442.039062 172.960938 443.484375 C 175.65625 445.894531 175.851562 446.375 174.984375 449.363281 C 174.210938 452.0625 173.25 452.929688 170.066406 454.085938 C 166.40625 455.339844 165.636719 455.242188 162.648438 453.796875 C 160.527344 452.832031 158.984375 451.289062 158.597656 449.75 C 158.019531 447.53125 157.636719 447.339844 151.851562 447.339844 C 145.011719 447.339844 144.625 447.820312 147.035156 453.410156 C 149.925781 460.15625 157.152344 464.011719 166.886719 463.914062 C 174.117188 463.914062 177.875 462.757812 181.632812 459.097656 C 185.488281 455.433594 187.125 451.964844 187.125 447.339844 C 187.125 438.570312 182.691406 434.328125 169.296875 429.992188 C 159.660156 426.8125 158.214844 425.65625 158.214844 421.316406 C 158.214844 416.789062 160.140625 415.054688 165.441406 415.054688 C 169.683594 415.054688 173.632812 417.460938 173.632812 420.066406 C 173.632812 420.933594 175.273438 421.316406 179.898438 421.316406 C 185.875 421.316406 186.164062 421.222656 186.164062 419.003906 C 186.164062 415.726562 182.308594 410.523438 177.972656 408.113281 C 173.441406 405.703125 165.054688 404.644531 159.757812 405.992188 Z M 159.757812 405.992188 " fill-opacity="1" fill-rule="nonzero"/><path fill="#ffffff" d="M 261.429688 419.96875 C 244.953125 428.257812 244.855469 453.3125 261.335938 461.796875 C 276.273438 469.410156 294.007812 459.769531 295.742188 443.097656 C 297.667969 424.304688 278.585938 411.488281 261.429688 419.96875 Z M 277.332031 428.640625 C 282.730469 431.246094 285.429688 438.472656 283.5 445.21875 C 280.320312 457.074219 264.515625 457.074219 261.335938 445.21875 C 259.503906 438.472656 262.300781 430.761719 267.40625 428.546875 C 271.453125 426.714844 273.382812 426.8125 277.332031 428.640625 Z M 277.332031 428.640625 " fill-opacity="1" fill-rule="nonzero"/><path fill="#ffffff" d="M 323.980469 418.523438 C 322.628906 419.101562 320.414062 420.644531 318.96875 421.992188 L 316.269531 424.59375 L 316.269531 418.425781 L 304.703125 418.425781 L 304.703125 485.890625 L 316.269531 485.890625 L 316.269531 457.941406 L 320.21875 460.734375 C 328.21875 466.613281 337.953125 465.554688 345.179688 458.035156 C 350.191406 452.929688 351.925781 448.207031 351.925781 440.015625 C 351.925781 433.652344 348.941406 426.136719 345.085938 422.570312 C 340.074219 417.945312 330.148438 416.113281 323.980469 418.523438 Z M 333.519531 428.835938 C 344.988281 435.003906 340.941406 454.085938 328.316406 454.085938 C 315.59375 454.085938 311.546875 434.519531 323.015625 428.835938 C 327.253906 426.617188 329.472656 426.617188 333.519531 428.835938 Z M 333.519531 428.835938 " fill-opacity="1" fill-rule="nonzero"/></svg>